<?xml version="1.0" standalone="no"?>
<!DOCTYPE svg PUBLIC "-//W3C//DTD SVG 20010904//EN"
 "http://www.w3.org/TR/2001/REC-SVG-20010904/DTD/svg10.dtd">
<svg version="1.0" xmlns="http://www.w3.org/2000/svg"
 width="1184.000000pt" height="1002.000000pt" viewBox="0 0 1184.000000 1002.000000"
 preserveAspectRatio="xMidYMid meet">
<metadata>
Created by potrace 1.16, written by Peter Selinger 2001-2019
</metadata>
<g transform="translate(0.000000,1002.000000) scale(0.100000,-0.100000)"
fill="#000000" stroke="none">
<path d="M0 5010 l0 -5010 5920 0 5920 0 0 5010 0 5010 -5920 0 -5920 0 0
-5010z m2280 4897 c19 -7 49 -20 65 -28 97 -52 152 -85 163 -96 7 -7 17 -13
21 -13 15 0 190 -182 223 -232 79 -119 175 -268 255 -397 144 -229 214 -314
477 -577 120 -120 188 -179 268 -232 59 -40 110 -72 114 -72 3 0 51 -30 107
-68 56 -37 124 -78 150 -91 43 -22 68 -41 53 -41 -8 0 -60 24 -66 30 -5 5 -21
13 -87 42 -16 7 -60 34 -100 60 -40 27 -76 48 -80 48 -5 0 -26 9 -48 20 l-40
21 30 -23 c17 -12 69 -60 117 -106 84 -79 97 -88 290 -182 207 -100 368 -169
448 -190 25 -6 106 -34 180 -62 152 -57 202 -71 315 -87 90 -13 222 -39 245
-48 8 -3 19 -5 24 -4 6 1 58 -3 117 -10 109 -12 226 -6 414 22 39 6 86 9 105
7 l35 -3 -42 -23 c-122 -64 -349 -107 -508 -96 -188 14 -413 58 -540 107 -22
9 -101 34 -175 57 -74 23 -155 49 -180 57 -207 66 -627 295 -703 382 -17 21
-57 54 -87 74 -30 20 -77 52 -105 72 -27 19 -93 64 -145 99 -52 35 -153 104
-225 152 -71 48 -155 101 -185 117 -30 16 -84 49 -120 72 -57 36 -158 95 -269
157 -20 11 -40 24 -46 28 -25 19 -91 52 -206 100 -68 29 -129 57 -136 62 -7 5
-14 5 -18 -2 -3 -5 -1 -10 4 -10 6 0 11 -4 11 -8 0 -5 -69 8 -152 29 -196 47
-287 60 -548 75 -78 4 -127 2 -190 -11 -47 -9 -114 -20 -150 -25 -36 -4 -77
-11 -92 -15 -43 -11 -34 10 10 23 120 37 351 56 522 43 180 -14 318 -30 348
-42 13 -5 37 -9 53 -9 17 0 39 -5 50 -11 11 -5 32 -9 47 -7 25 4 25 5 7 13
-11 4 -31 16 -45 25 -14 10 -38 20 -55 24 -46 11 -96 24 -140 36 -79 23 -164
31 -382 36 -125 3 -223 10 -223 15 0 5 19 9 43 10 23 0 56 2 73 4 35 5 264
-10 374 -25 144 -18 165 -22 175 -31 5 -5 19 -9 31 -9 13 0 26 -4 29 -10 3 -5
16 -10 28 -10 21 0 108 -30 145 -49 9 -5 60 -24 112 -42 52 -17 142 -54 199
-80 57 -27 106 -47 108 -45 2 2 -23 21 -56 42 -57 37 -78 60 -66 72 8 8 144
-42 185 -68 8 -5 33 -19 55 -31 22 -12 78 -45 125 -74 47 -29 98 -55 114 -59
l29 -7 -38 43 c-20 24 -45 49 -53 56 -18 14 -36 16 -28 3 4 -5 -3 -7 -14 -4
-11 3 -20 9 -20 14 0 5 -8 9 -18 9 -9 0 -37 18 -61 40 -43 39 -42 52 2 28 12
-7 30 -22 39 -32 10 -11 21 -16 25 -12 4 4 -9 23 -30 42 -34 32 -51 64 -27 49
55 -34 -97 123 -209 215 -49 41 -156 157 -303 328 -32 37 -78 101 -102 143
-27 46 -68 97 -105 131 -74 67 -79 88 -18 88 23 0 58 -6 77 -13z m3170 -37
c50 -16 97 -30 104 -30 18 0 221 -101 284 -142 77 -49 222 -196 277 -280 26
-40 55 -84 64 -98 57 -84 125 -271 147 -400 17 -104 18 -304 1 -343 -7 -15
-23 -33 -36 -40 -26 -13 -51 -74 -51 -125 0 -37 25 -102 43 -114 6 -4 9 -10 5
-13 -3 -4 -20 14 -38 39 -29 44 -31 50 -29 131 2 47 6 90 11 97 5 9 8 8 8 -4
0 -10 5 -18 11 -18 7 0 8 7 4 18 -9 21 -9 26 -5 77 l3 40 7 -45 c6 -36 7 -29
7 40 0 61 -2 74 -6 45 -7 -38 -7 -36 -14 30 -9 87 -39 198 -76 278 -15 34 -34
78 -41 97 -45 116 -186 290 -309 384 -81 62 -192 118 -306 157 -95 32 -107 34
-235 33 -116 0 -147 -4 -224 -27 -147 -44 -240 -100 -307 -186 -55 -70 -80
-128 -119 -274 -16 -61 -9 -230 12 -255 7 -9 20 -30 27 -47 7 -16 17 -38 22
-47 5 -10 9 -25 9 -33 0 -17 15 -46 43 -84 26 -36 21 -13 -13 54 -16 33 -30
70 -30 83 0 12 -4 31 -10 42 -5 11 -14 28 -19 39 -17 33 -33 144 -26 180 17
92 46 158 99 231 114 154 197 200 461 251 61 12 198 0 253 -22 13 -5 34 -9 47
-9 24 0 45 -7 115 -38 27 -12 31 -17 17 -20 -10 -2 -31 1 -45 6 -25 9 -58 16
-190 42 -164 31 -412 -26 -515 -119 -83 -75 -171 -224 -193 -325 -27 -127 36
-331 143 -462 23 -29 50 -69 61 -90 22 -42 75 -96 132 -135 19 -13 44 -32 55
-42 20 -18 20 -18 -10 -6 -48 21 -137 84 -182 130 -24 23 -43 38 -43 34 0 -20
65 -107 103 -138 50 -41 184 -130 212 -142 17 -7 17 -9 4 -12 -9 -2 -43 9 -75
24 -33 15 -72 33 -87 41 l-29 13 22 -31 c12 -16 26 -30 31 -30 5 0 9 -4 9 -10
0 -17 -16 -12 -92 32 -143 82 -193 126 -272 240 -111 161 -167 297 -180 438
l-6 65 34 -87 c18 -48 40 -108 47 -133 7 -25 17 -45 22 -45 9 0 9 9 -13 165
-13 97 -9 254 10 345 14 66 79 203 116 245 48 54 71 90 78 118 8 34 -1 34 -50
-1 -38 -28 -112 -121 -147 -184 -9 -18 -25 -36 -35 -40 -27 -11 -72 -9 -72 3
0 6 -7 9 -15 5 -32 -12 -14 45 40 124 30 44 55 84 55 89 0 16 86 99 136 133
28 19 78 45 110 57 33 13 68 27 79 32 18 7 109 22 205 33 19 2 87 2 151 0 95
-3 133 -9 209 -34z m-3650 -65 c282 -59 338 -81 423 -160 48 -46 62 -73 30
-60 -28 12 -105 35 -115 35 -5 0 -6 -9 -3 -20 5 -14 2 -20 -9 -20 -21 0 -20
-6 4 -39 16 -24 18 -36 11 -82 -5 -29 -6 -59 -4 -66 6 -15 -10 -17 -35 -4 -9
5 -37 15 -62 21 -58 16 -67 19 -235 79 -158 57 -290 91 -352 91 -23 0 -44 4
-47 9 -5 8 4 11 129 32 33 6 67 16 75 23 8 7 45 27 83 45 37 19 67 37 67 42 0
4 17 9 37 11 l38 3 -54 28 c-29 15 -59 27 -66 27 -8 0 -17 5 -20 10 -8 14 27
12 105 -5z m1899 -12 c42 -32 84 -121 78 -166 -6 -45 -12 -53 -29 -40 -7 5
-39 18 -72 28 -78 24 -116 58 -123 112 -4 31 -1 50 12 69 15 24 22 26 62 21
25 -3 57 -14 72 -24z m5647 -98 c118 -7 346 -51 453 -89 41 -14 81 -26 89 -26
20 0 352 -151 464 -211 10 -5 22 -9 28 -9 6 0 32 -10 58 -21 95 -43 110 -49
119 -49 4 0 19 -6 33 -13 61 -32 125 -42 240 -38 218 7 218 7 236 -11 9 -9 13
-21 9 -28 -6 -10 -10 -9 -16 1 -6 12 -27 13 -121 6 -118 -9 -341 -1 -333 13 2
4 -7 8 -20 8 -26 0 -33 -12 -15 -23 6 -3 10 -14 10 -24 0 -50 -96 -99 -210
-107 -56 -5 -101 0 -180 16 -312 67 -372 72 -685 67 -259 -5 -333 -12 -405
-39 -19 -7 -89 -26 -115 -32 -18 -3 -17 -4 3 -5 12 0 22 -6 22 -12 0 -13 56
-9 225 16 107 15 195 13 195 -5 0 -5 -12 -12 -27 -16 -174 -39 -396 -111 -658
-214 -155 -61 -172 -58 -80 10 39 29 53 45 48 56 -8 22 -76 13 -114 -15 -16
-12 -32 -21 -37 -21 -34 0 -350 -235 -510 -379 -68 -61 -127 -111 -131 -111
-5 0 -20 -11 -35 -25 -15 -14 -32 -25 -38 -25 -6 0 -50 -19 -96 -42 -119 -60
-132 -68 -132 -77 0 -5 -21 -19 -47 -31 -27 -12 -57 -30 -68 -40 -49 -46 -65
-60 -65 -56 0 6 -50 -38 -123 -107 -62 -59 -162 -124 -183 -119 -6 1 -17 -5
-24 -13 -7 -8 -18 -15 -24 -15 -6 0 -67 -59 -136 -131 -109 -114 -194 -189
-215 -189 -3 0 -3 10 0 23 3 12 3 17 -2 12 -9 -12 -101 -88 -143 -119 -16 -11
-64 -49 -107 -84 -43 -34 -91 -73 -107 -85 -16 -12 -37 -30 -47 -39 -11 -10
-21 -18 -24 -18 -2 0 -30 -16 -60 -35 -31 -20 -77 -45 -103 -56 l-47 -19 26
22 c49 43 69 58 76 58 3 0 29 17 57 38 28 21 67 50 88 65 20 15 42 32 50 39 7
7 38 33 68 58 136 111 261 239 360 370 36 47 72 92 80 100 51 50 209 294 305
470 19 36 63 103 97 150 64 89 212 316 219 338 5 16 65 94 107 140 l33 37 -5
-40 c-2 -22 -2 -32 0 -22 3 9 11 17 19 17 7 0 18 14 24 31 6 17 20 33 31 36
11 3 17 9 14 14 -3 5 4 18 15 30 21 23 36 63 19 53 -6 -4 -2 5 7 20 10 14 22
26 27 26 6 0 31 17 57 38 25 21 78 60 116 87 39 27 72 52 75 55 18 23 203 135
290 177 145 69 125 62 450 154 101 29 300 50 400 43 25 -2 91 -6 146 -9z
m-5598 -151 c29 -14 59 -23 67 -20 8 3 14 2 12 -2 -1 -4 10 -23 25 -42 32 -43
49 -83 39 -98 -11 -19 -94 -52 -130 -52 -47 0 -115 36 -162 87 -32 35 -39 50
-39 82 0 34 5 43 28 55 42 23 101 19 160 -10z m3217 -23 c66 -30 151 -115 187
-188 30 -62 31 -67 19 -111 -19 -73 -35 -85 -101 -78 -88 11 -129 25 -167 60
-32 29 -39 45 -69 165 -32 126 -33 135 -18 152 22 25 95 25 149 0z m-5165 -69
c124 -33 261 -86 340 -132 41 -24 130 -75 198 -113 68 -38 121 -72 118 -74 -7
-7 -176 64 -196 81 -25 22 -145 76 -202 92 -61 16 -148 19 -148 4 0 -5 12 -10
28 -10 53 0 182 -44 182 -62 0 -14 -34 -9 -132 17 -91 25 -110 25 -215 9 -18
-3 -33 -9 -33 -14 0 -5 57 -9 128 -9 104 1 138 -3 187 -20 33 -12 68 -21 78
-21 10 0 25 -7 34 -16 14 -14 10 -15 -48 -8 -35 3 -72 11 -81 15 -9 5 -30 9
-46 9 -16 0 -42 4 -58 9 -16 5 -69 12 -119 15 -148 10 -260 36 -152 36 26 0
47 5 47 10 0 6 -29 10 -67 10 -72 0 -112 13 -77 24 11 3 42 2 69 -2 28 -4 61
-7 75 -6 14 0 54 1 90 3 111 3 46 18 -115 26 -82 4 -154 6 -160 6 -62 -9 -178
-11 -170 -3 34 31 260 38 555 16 46 -3 71 -2 65 4 -13 11 -118 29 -215 37 -41
3 -97 7 -125 10 -27 2 -74 4 -102 4 -50 1 -78 20 -30 22 21 0 21 1 2 9 -11 5
-67 9 -125 10 l-105 2 55 19 c77 26 358 21 470 -9z m4896 -235 c11 -19 13 -45
8 -90 -7 -72 5 -95 57 -113 l34 -11 -53 -8 c-34 -4 -58 -3 -64 3 -6 6 -21 55
-34 109 -24 97 -30 163 -17 176 9 9 51 -31 69 -66z m-1189 -11 c63 -22 112
-59 170 -127 49 -58 94 -152 94 -194 -1 -11 0 -47 1 -80 4 -126 0 -201 -13
-230 l-14 -30 -3 53 c-4 64 -15 64 -58 -1 -17 -26 -39 -56 -49 -67 -22 -24
-122 -73 -138 -67 -7 2 4 11 23 21 46 22 174 162 166 182 -7 19 -152 85 -240
109 -61 16 -77 26 -141 86 -50 48 -75 80 -83 107 -15 51 -16 192 -1 192 6 0 9
7 5 15 -3 10 8 21 37 35 34 16 56 19 122 15 44 -2 99 -11 122 -19z m-1650
-173 c13 -16 49 -64 80 -108 152 -216 293 -401 363 -473 33 -35 60 -66 60 -68
0 -11 -18 -1 -50 26 -43 36 -74 42 -42 7 37 -40 23 -53 -17 -16 -12 12 -20 28
-17 36 4 10 -25 46 -84 105 -49 50 -90 85 -90 79 0 -6 14 -26 31 -43 18 -20
28 -39 26 -50 -5 -18 62 -94 131 -148 43 -34 40 -44 -5 -17 -42 24 -208 186
-200 194 3 3 16 -5 29 -17 18 -17 24 -18 26 -6 2 8 -11 28 -29 45 -20 19 -29
36 -25 46 3 9 2 13 -3 10 -9 -5 -26 12 -26 26 0 13 -108 134 -117 131 -5 -1
-7 2 -3 8 10 16 -6 35 -17 19 -7 -11 -8 -9 -7 6 2 11 -14 53 -34 94 -40 80
-42 92 -27 122 14 25 18 24 47 -8z m-2279 5 c-3 -7 -18 -14 -34 -16 -16 -1
-40 -5 -54 -8 l-25 -6 25 -13 c24 -14 23 -14 -22 -15 -38 0 -46 3 -42 15 5 11
-1 15 -19 15 -14 0 -29 -4 -32 -10 -3 -5 -19 -10 -34 -10 -16 0 -34 -7 -41
-15 -10 -12 -10 -15 4 -15 9 0 16 -4 16 -10 0 -16 -30 -12 -36 5 -9 24 -37 19
-29 -5 4 -11 2 -20 -4 -20 -6 0 -11 5 -11 10 0 19 -16 10 -33 -19 -13 -22 -14
-30 -5 -34 10 -3 10 -8 -2 -23 -14 -19 -14 -19 7 -1 12 11 27 16 32 12 6 -3
11 0 11 7 0 15 58 41 71 32 16 -9 -3 -32 -32 -38 -16 -3 -29 -11 -29 -19 0 -7
-13 -21 -30 -30 -16 -10 -30 -23 -30 -28 0 -11 73 29 78 43 5 12 70 38 93 38
11 0 19 -5 19 -11 0 -7 -9 -9 -21 -6 -12 3 -22 0 -26 -9 -3 -8 -11 -13 -18
-10 -7 2 -25 -9 -41 -25 -41 -43 -117 -89 -145 -89 -19 0 -21 2 -9 10 24 15 2
24 -25 10 -29 -16 -33 -30 -7 -31 13 0 14 -2 2 -6 -8 -4 -20 -13 -27 -22 -8
-11 -12 -12 -13 -3 0 18 -40 15 -40 -3 0 -11 -7 -14 -23 -10 -20 5 -30 -4 -70
-64 -26 -39 -47 -74 -47 -79 0 -14 -25 -62 -32 -62 -5 0 -8 -11 -8 -25 0 -14
-4 -25 -10 -25 -5 0 -10 11 -10 24 0 14 5 28 10 31 6 3 10 13 10 21 0 8 -4 14
-10 14 -5 0 -10 -7 -10 -15 0 -8 -13 -43 -28 -77 -47 -106 -66 -189 -82 -368
-22 -240 28 -439 160 -635 29 -42 60 -87 69 -98 42 -55 154 -155 236 -212 49
-35 95 -68 102 -74 6 -6 36 -26 66 -45 121 -78 61 -70 -86 11 -152 83 -176
100 -258 182 -96 96 -164 195 -245 356 -38 76 -88 217 -99 278 -4 20 -11 40
-16 43 -5 3 -9 18 -9 34 0 15 -5 30 -10 32 -26 8 -50 273 -32 337 6 20 16 59
23 86 22 86 84 228 133 302 44 68 134 164 186 200 14 10 31 23 38 30 17 16
130 83 141 83 5 0 14 7 21 15 6 7 33 17 58 21 26 3 52 10 57 14 20 14 62 23
155 30 160 12 182 11 178 -2z m2146 -100 c4 2 5 -9 2 -23 -4 -14 -3 -25 1 -25
5 0 26 -25 48 -55 22 -30 48 -58 57 -61 10 -3 41 -33 69 -66 28 -34 65 -71 82
-83 18 -12 31 -29 31 -38 -1 -9 3 -14 9 -10 6 4 8 0 4 -9 -3 -9 0 -21 6 -27 6
-6 8 -14 4 -17 -7 -7 -22 8 -126 125 -47 53 -67 69 -73 59 -7 -10 -8 -9 -6 2
2 9 -9 28 -24 43 -31 31 -88 111 -88 124 0 5 -8 18 -18 29 -10 10 -21 27 -25
37 -6 15 -4 16 16 5 12 -7 26 -11 31 -10z m698 7 c3 3 19 -34 37 -82 35 -98
49 -123 139 -252 34 -49 62 -94 62 -99 0 -6 4 -12 8 -14 13 -5 75 -99 69 -104
-11 -11 -82 65 -145 155 -96 138 -127 192 -167 291 -38 94 -45 130 -22 111 8
-6 16 -9 19 -6z m5535 9 c-3 -4 -24 -10 -47 -15 -22 -5 -59 -14 -82 -20 -24
-5 -70 -13 -103 -16 -33 -3 -64 -9 -69 -14 -6 -5 -22 -9 -37 -9 -15 0 -31 -4
-34 -10 -3 -5 -17 -10 -31 -10 -13 0 -24 -4 -24 -9 0 -12 -55 -31 -89 -31 -14
0 -34 -7 -44 -14 -10 -8 -48 -22 -85 -32 -37 -10 -91 -31 -121 -46 -29 -15
-61 -28 -70 -28 -9 0 -21 -4 -27 -8 -5 -5 -47 -24 -94 -42 -47 -18 -97 -42
-112 -52 -14 -10 -29 -18 -32 -18 -3 0 -37 -20 -76 -45 -39 -25 -73 -45 -75
-45 -3 0 -71 -43 -151 -95 -80 -52 -147 -95 -150 -95 -4 0 -80 -52 -170 -118
-108 -78 -117 -82 -59 -27 70 67 198 165 214 165 6 0 11 5 11 10 0 6 4 10 9
10 5 0 83 49 173 108 90 59 174 113 188 118 72 30 90 40 90 46 0 5 9 8 20 8
11 0 20 5 20 10 0 6 8 10 18 10 9 0 28 9 42 20 14 11 30 20 36 20 5 0 29 9 52
20 22 11 46 20 52 20 5 0 18 4 28 9 40 21 113 51 125 51 7 0 17 4 23 8 9 9
114 42 194 62 25 6 56 16 70 22 58 25 144 48 180 48 11 0 28 4 38 9 42 22 218
44 199 25z m-8422 -123 c-3 -6 -15 -11 -26 -11 -10 0 -27 -4 -37 -9 -23 -12
-60 -26 -102 -41 -51 -17 -84 -34 -92 -45 -5 -7 -11 -6 -16 2 -5 8 -16 4 -36
-14 -23 -19 -26 -27 -15 -33 7 -5 10 -12 6 -17 -5 -4 -12 -1 -17 7 -7 11 -16
6 -44 -22 -20 -20 -36 -40 -36 -45 0 -6 -9 -18 -19 -27 -11 -10 -25 -31 -31
-47 -7 -16 -16 -29 -21 -29 -16 0 -10 26 11 48 11 12 20 26 20 32 0 5 5 10 10
10 6 0 9 3 8 8 -2 4 7 18 20 32 12 13 32 39 45 57 12 18 25 33 29 33 9 0 36
21 86 67 38 34 82 49 82 27 0 -9 11 -14 30 -14 17 0 30 5 30 10 0 6 8 10 18
10 10 0 22 4 28 9 8 9 64 19 73 14 1 -1 0 -6 -4 -12z m9559 -13 c-2 -7 -30
-24 -62 -37 -31 -13 -81 -34 -110 -47 -30 -14 -87 -34 -127 -45 -41 -11 -87
-27 -104 -35 -30 -15 -40 -37 -22 -49 5 -3 8 -45 6 -93 -5 -170 -4 -246 6
-258 7 -8 5 -29 -7 -63 -9 -28 -14 -59 -12 -69 3 -11 -3 -89 -12 -175 -10 -86
-15 -166 -13 -179 5 -29 -23 -99 -39 -95 -9 1 -16 -31 -23 -109 -8 -82 -15
-115 -28 -128 -9 -10 -18 -23 -19 -29 0 -7 -2 -16 -3 -22 -3 -24 -70 -105 -86
-105 -10 0 -22 -8 -28 -17 -5 -10 -31 -30 -58 -44 -26 -14 -48 -31 -48 -38 0
-11 -25 -29 -70 -49 -83 -38 -113 -51 -135 -57 -32 -9 -84 -31 -141 -60 -26
-13 -56 -21 -67 -19 -11 3 -23 1 -26 -5 -4 -6 -16 -11 -26 -11 -11 0 -35 -9
-55 -20 -20 -11 -40 -20 -46 -20 -6 0 -38 -13 -72 -29 -34 -15 -82 -34 -107
-41 -25 -6 -53 -16 -62 -21 -10 -5 -22 -9 -28 -9 -5 0 -53 -18 -107 -41 -54
-22 -129 -53 -168 -69 -38 -16 -83 -32 -100 -36 -16 -4 -60 -22 -96 -40 -36
-18 -82 -36 -103 -40 -41 -7 -152 -62 -194 -94 -28 -23 -85 -29 -64 -7 7 6 27
17 44 23 17 5 32 17 33 25 2 12 -35 15 -246 16 -207 2 -249 0 -249 -12 0 -17
-35 -29 -78 -26 -21 1 -40 -6 -54 -19 -14 -13 -35 -20 -57 -19 -104 2 -191 -3
-191 -10 0 -4 -75 -11 -166 -15 -92 -4 -178 -12 -193 -18 -14 -5 -50 -11 -78
-13 -29 -1 -60 -8 -68 -15 -11 -9 -35 -11 -86 -6 -54 5 -71 3 -75 -8 -4 -10
-31 -13 -118 -12 -80 1 -118 -3 -129 -12 -12 -10 -47 -12 -149 -7 -73 3 -169
6 -213 8 -44 1 -83 6 -86 11 -4 4 -17 2 -30 -5 -18 -9 -130 -13 -446 -16 -414
-3 -423 -3 -435 17 -7 11 -21 20 -30 20 -10 0 -18 5 -18 10 0 6 -33 10 -80 10
-47 0 -80 -4 -80 -10 0 -5 -12 -10 -26 -10 -22 0 -26 4 -22 23 3 17 0 23 -14
24 -10 1 -18 -3 -18 -8 0 -6 -4 -7 -10 -4 -6 3 -10 15 -10 26 0 11 -7 19 -17
20 -17 1 -17 2 0 6 9 2 15 9 12 14 -4 5 0 9 8 9 8 0 34 9 58 20 39 17 41 20
17 20 -15 0 -30 -4 -33 -10 -3 -5 -19 -10 -35 -10 -16 0 -32 -4 -35 -10 -3 -5
-19 -10 -35 -10 -16 0 -32 5 -35 10 -3 6 -1 10 5 10 7 0 26 6 43 14 38 16 91
31 167 46 30 7 71 16 90 20 164 40 206 53 240 70 22 11 48 20 59 20 11 0 23 5
26 10 3 6 13 10 21 10 8 0 33 9 57 19 23 11 76 31 117 46 172 62 378 138 422
158 18 8 65 25 103 38 39 13 98 38 133 57 35 18 98 46 140 63 96 37 155 63
307 134 66 31 143 66 170 77 74 29 105 43 275 125 85 41 176 83 202 94 67 26
229 103 318 150 158 84 609 299 628 299 10 0 167 63 240 96 29 13 55 24 57 24
2 0 28 11 57 24 29 13 84 33 121 45 38 11 83 27 100 35 31 13 164 64 322 124
44 16 148 52 230 80 83 27 202 68 265 90 122 41 153 51 265 77 39 9 84 20 100
25 48 13 177 50 210 60 17 5 60 17 97 27 37 11 71 22 74 26 4 4 15 7 24 7 9 0
35 9 58 20 22 11 50 20 61 20 11 0 36 9 54 19 19 10 43 21 53 24 10 2 20 5 21
6 1 0 0 -5 -3 -11z m-8623 -56 c20 -5 51 -17 69 -26 18 -9 38 -16 44 -16 5 0
58 -23 116 -51 58 -28 123 -59 145 -69 69 -31 239 -116 275 -139 70 -43 3 -19
-128 45 -74 36 -153 72 -176 81 -22 9 -45 20 -51 24 -26 19 -170 89 -185 89
-9 0 -20 4 -25 8 -6 5 -49 21 -97 37 -49 15 -88 30 -88 32 0 6 51 -1 101 -15z
m-221 -60 c30 -6 87 -15 125 -21 70 -10 167 -38 228 -65 18 -7 48 -19 67 -26
59 -22 98 -40 270 -122 317 -153 321 -156 735 -409 50 -31 133 -78 185 -106
52 -28 129 -70 170 -93 206 -114 428 -204 690 -281 41 -12 93 -27 115 -34 22
-7 67 -18 100 -25 33 -7 78 -16 100 -22 22 -5 55 -12 73 -15 18 -3 35 -9 38
-14 12 -19 -99 -6 -251 31 -44 10 -123 29 -175 41 -228 51 -417 114 -560 184
-47 23 -103 50 -125 60 -22 10 -67 30 -100 45 -33 15 -76 33 -95 40 -19 8 -97
45 -172 82 -76 37 -139 68 -141 68 -3 0 -63 27 -133 60 -166 78 -279 125 -354
146 -14 4 -52 19 -85 34 -33 14 -76 32 -95 39 -19 7 -44 17 -55 22 -11 4 -38
13 -59 18 -38 10 -41 9 -70 -24 -30 -34 -35 -36 -126 -45 -52 -5 -149 -10
-215 -10 -164 0 -277 -20 -372 -66 -93 -44 -207 -120 -249 -165 -39 -44 -114
-144 -114 -153 0 -4 -11 -23 -25 -43 -13 -20 -31 -62 -40 -92 -9 -31 -20 -69
-25 -86 -5 -16 -11 -54 -15 -83 -9 -70 -27 -56 -20 16 9 91 28 149 86 265 43
84 66 122 111 178 45 55 60 89 39 89 -5 0 -18 20 -29 44 -26 55 -18 95 24 116
16 8 31 18 34 21 3 3 23 12 45 19 22 7 45 18 50 24 10 12 82 43 165 70 58 19
42 23 -98 29 -61 3 -118 10 -125 16 -8 6 -16 8 -19 6 -3 -3 -11 14 -18 39 -12
46 -6 101 14 122 6 6 21 23 33 37 l22 26 -72 -5 c-75 -4 -74 0 3 22 53 15 421
12 510 -4z m4208 -226 c34 -18 78 -65 86 -92 6 -20 2 -22 -36 -26 -99 -10
-155 43 -118 113 13 23 31 24 68 5z m-294 -83 c-13 -74 -65 -164 -128 -226
-88 -86 -270 -217 -283 -204 -2 3 12 15 32 27 19 12 41 27 48 34 6 6 28 22 47
36 33 22 134 121 155 152 26 38 37 56 56 95 11 24 31 55 44 69 14 15 25 33 25
40 0 8 2 14 5 14 3 0 3 -17 -1 -37z m878 -10 c-19 -27 -36 -57 -90 -153 -114
-207 -198 -318 -373 -497 -136 -139 -236 -223 -266 -223 -15 0 -16 -2 -3 -11
12 -9 10 -10 -9 -5 -23 5 -77 -25 -65 -36 2 -3 -7 -13 -22 -22 -14 -10 -29
-15 -32 -11 -4 3 0 10 8 15 8 5 12 12 8 15 -3 4 -29 -6 -58 -20 -99 -50 -381
-126 -535 -144 -213 -25 -474 -8 -540 35 -13 8 -63 22 -111 29 -102 17 -121
27 -44 25 30 -1 96 -1 145 1 l90 2 -65 8 c-36 4 -137 7 -225 7 -150 -1 -168 1
-280 31 -66 18 -149 39 -185 46 -36 8 -144 30 -240 50 -181 37 -252 57 -380
105 -41 16 -113 43 -160 60 -47 17 -98 37 -115 45 -16 7 -52 23 -79 35 -40 18
-163 54 -296 86 -27 6 -43 12 -102 38 -48 21 -198 54 -308 68 -47 6 -206 11
-355 12 -269 1 -312 7 -228 32 190 57 478 41 743 -41 63 -20 174 -52 245 -72
72 -19 138 -39 147 -44 9 -5 24 -9 33 -9 10 0 40 -11 67 -25 28 -14 67 -29 87
-34 20 -5 88 -28 151 -51 199 -71 284 -98 432 -135 78 -20 168 -43 198 -51 94
-27 140 -33 140 -17 0 7 -7 13 -15 13 -8 0 -23 4 -33 9 -37 19 -72 31 -202 71
-74 23 -187 62 -250 87 -115 45 -136 53 -220 91 -64 28 -390 136 -550 182
-221 63 -339 86 -552 110 -175 20 -418 -16 -575 -85 -76 -33 -111 -56 -180
-119 -24 -21 -46 -37 -49 -34 -7 7 118 120 152 138 16 8 40 22 54 30 14 9 52
27 85 39 33 13 69 27 80 31 79 32 425 44 578 21 177 -28 299 -55 407 -91 30
-10 89 -28 130 -40 41 -12 84 -26 95 -30 34 -14 127 -48 204 -75 68 -23 141
-54 257 -106 110 -49 197 -79 299 -104 66 -16 160 -55 267 -110 66 -34 223
-71 358 -85 63 -6 171 -18 240 -26 250 -31 287 -35 393 -41 76 -4 107 -2 107
6 0 7 -21 11 -57 11 -43 0 -54 3 -45 12 8 8 33 8 101 -2 111 -16 162 -11 324
34 32 9 67 16 78 16 10 0 27 4 37 10 9 5 53 25 97 44 204 85 405 209 548 336
89 79 117 97 126 82 4 -8 18 2 40 28 17 21 53 61 78 87 25 26 59 68 76 93 27
40 46 63 120 150 12 14 35 45 51 68 16 23 31 40 34 38 2 -3 -5 -17 -16 -33z
m-5432 -788 c-6 -26 -9 -50 -6 -52 3 -3 35 7 72 22 82 33 205 44 263 25 57
-18 192 -161 210 -220 7 -25 17 -55 22 -68 23 -58 -3 -192 -46 -243 -17 -21
-25 -25 -25 -15 0 24 -21 19 -76 -16 -39 -27 -58 -33 -100 -33 -43 1 -59 7
-109 42 -73 52 -206 198 -234 258 -17 36 -21 64 -21 139 0 52 5 108 11 123 44
107 57 120 39 38z m1295 26 c33 -6 89 -15 125 -20 36 -5 90 -15 120 -21 30 -6
72 -14 93 -17 20 -3 40 -9 43 -14 3 -5 18 -9 34 -9 16 0 32 -5 36 -12 5 -8 -5
-9 -37 -4 -74 12 -188 35 -279 56 -25 6 -76 15 -115 20 -38 5 -77 11 -85 14
-8 3 -86 7 -174 10 -87 3 -161 8 -164 11 -10 10 339 -2 403 -14z m8033 -490
c11 -7 11 -9 -1 -14 -20 -8 -25 -71 -16 -197 22 -296 21 -1025 -2 -1061 -5 -9
-41 -15 -111 -19 -103 -5 -133 -14 -199 -61 -40 -28 -129 -60 -150 -54 -10 4
-49 35 -85 71 -60 58 -70 64 -109 64 -23 0 -66 4 -95 10 -29 5 -103 12 -164
15 -155 7 -216 15 -251 33 -23 12 -62 16 -165 16 -141 1 -172 -7 -225 -54 -61
-54 -310 -178 -373 -187 -35 -5 -40 -3 -50 23 -6 16 -16 67 -22 114 -14 106
-17 116 -38 126 -9 4 -120 10 -247 13 -126 4 -236 10 -243 15 -9 5 -10 11 -3
20 6 7 9 15 7 17 -2 2 -6 21 -9 42 -5 32 -3 38 9 33 9 -3 12 -1 9 4 -3 6 -10
10 -15 10 -5 0 -21 5 -37 11 -22 8 -24 12 -13 19 11 7 8 10 -12 10 -16 0 -28
-4 -28 -8 0 -5 -15 -6 -32 -4 -18 3 -26 7 -18 9 8 3 33 13 55 22 80 36 172 74
250 103 44 16 82 33 83 38 2 6 14 10 27 10 13 0 27 5 30 10 3 6 13 10 20 10 8
0 43 14 77 30 34 17 65 30 70 30 4 0 35 13 68 29 34 17 78 35 98 42 20 7 51
20 67 29 17 9 44 20 60 24 17 4 62 23 102 42 40 19 77 34 83 34 6 0 18 4 28 9
28 15 83 38 147 61 145 52 174 64 274 106 58 24 114 49 123 54 10 6 25 10 33
10 8 0 23 4 33 10 9 5 46 19 82 30 36 12 74 25 85 30 11 5 49 18 85 30 36 12
74 25 85 30 28 11 72 25 125 40 25 7 54 16 65 21 11 4 52 18 90 29 39 12 81
25 95 30 36 12 107 28 165 39 67 12 68 12 83 2z m-7945 -331 c159 -6 293 -13
298 -16 5 -3 9 -10 9 -16 0 -8 -24 -9 -77 -4 -43 4 -170 11 -283 16 -256 11
-346 20 -328 32 7 5 31 6 53 3 22 -3 170 -10 328 -15z m-791 -69 c92 -12 282
-28 508 -41 96 -6 263 -18 370 -26 107 -8 236 -15 285 -15 67 0 84 -2 67 -9
-42 -17 -803 21 -1102 56 -74 8 -182 20 -239 25 -58 5 -107 12 -110 14 -8 9
145 5 221 -4z m2312 -338 c4 -5 -23 -13 -61 -20 -37 -6 -88 -17 -113 -23 -104
-26 -192 -42 -295 -56 -93 -12 -254 -35 -305 -44 -77 -13 -163 -19 -153 -10 4
4 35 12 68 18 33 6 103 20 155 32 52 12 122 25 155 30 33 5 119 19 190 31 72
11 154 25 183 29 30 5 56 11 60 14 8 9 107 7 116 -1z m-2239 -273 c121 -5 242
-12 268 -16 l48 -7 -3 -116 -3 -116 -270 -1 -270 -1 -3 -105 c-1 -58 1 -116 6
-129 9 -23 14 -24 108 -26 113 -3 260 -19 320 -34 61 -16 68 -35 55 -153 -6
-54 -13 -101 -15 -105 -3 -4 -53 -3 -113 1 -59 5 -164 7 -233 6 l-125 -3 3
-232 3 -232 -26 -7 c-14 -4 -80 -4 -146 -2 -91 3 -123 8 -130 19 -5 8 -9 283
-9 648 l0 634 158 -7 c86 -3 256 -11 377 -16z m980 -30 c110 -6 237 -16 283
-22 96 -13 109 -25 92 -86 -5 -20 -10 -63 -10 -96 l0 -58 -280 3 c-226 3 -281
1 -285 -9 -3 -8 -5 -65 -5 -128 l0 -114 178 0 c97 -1 206 -6 242 -13 l65 -13
-2 -91 c-3 -108 -15 -149 -41 -137 -9 4 -111 9 -225 12 l-208 4 3 -118 3 -119
261 -6 c144 -4 270 -11 280 -17 16 -9 17 -23 15 -123 -1 -63 -5 -116 -7 -119
-14 -13 -848 10 -861 24 -2 2 -5 281 -7 620 l-3 616 156 0 c86 0 246 -4 356
-10z m670 -16 c22 -3 103 -10 180 -15 77 -5 169 -13 205 -18 164 -22 270 -93
330 -219 12 -26 26 -55 31 -64 5 -10 9 -60 9 -111 0 -118 -21 -165 -114 -257
-36 -36 -71 -78 -77 -93 -12 -29 -6 -50 32 -107 9 -14 26 -41 36 -60 11 -19
43 -72 72 -118 28 -46 51 -85 51 -88 0 -2 10 -25 21 -49 12 -25 19 -48 16 -52
-3 -3 -27 2 -53 11 -31 10 -82 16 -147 16 -98 0 -99 0 -131 33 -34 34 -82 111
-148 237 -56 107 -75 122 -152 118 l-61 -3 3 -203 4 -203 -24 5 c-24 5 -174
24 -218 29 l-25 2 0 455 c1 250 5 526 9 613 l9 157 51 -5 c28 -3 69 -8 91 -11z
m1210 -64 c284 -30 318 -40 413 -119 64 -52 102 -124 121 -228 33 -172 -28
-318 -156 -375 -41 -18 -44 -22 -38 -46 4 -15 32 -65 64 -112 31 -47 63 -98
71 -115 8 -16 21 -41 30 -55 27 -41 60 -131 60 -161 0 -35 -16 -46 -30 -20 -9
18 -22 21 -102 23 l-92 3 -31 41 c-146 199 -186 255 -210 292 -33 51 -84 85
-122 80 -28 -3 -28 -3 -27 -78 1 -41 5 -135 9 -209 l8 -134 -24 8 c-13 4 -65
10 -116 12 -67 4 -96 9 -105 20 -10 13 -14 141 -17 594 -2 319 0 586 3 595 5
14 15 16 59 10 28 -4 133 -16 232 -26z m2885 -53 c80 -9 216 -21 303 -26 86
-5 162 -13 167 -16 6 -4 10 -56 10 -122 l0 -116 -162 5 c-90 2 -208 2 -263 -1
l-100 -6 2 -113 c1 -62 5 -117 8 -122 4 -6 92 -10 213 -10 114 0 213 -4 221
-9 11 -7 15 -37 15 -133 l1 -123 -35 3 c-19 2 -124 5 -232 8 l-196 5 4 -93
c14 -325 13 -357 -5 -363 -10 -3 -30 -1 -45 5 -15 5 -51 10 -79 10 -113 0
-132 25 -24 32 77 5 101 13 91 29 -3 6 -8 35 -10 66 -2 31 -11 63 -19 72 -8 9
-31 33 -50 54 -36 39 -55 47 -55 23 0 -11 -28 -32 -31 -23 0 1 -4 106 -9 232
-9 248 -27 576 -35 663 -9 92 -6 95 89 89 44 -2 146 -12 226 -20z m-1990 4
c19 -5 25 -14 27 -36 1 -17 7 -122 13 -235 22 -425 32 -505 71 -585 30 -61 74
-85 159 -85 70 0 70 0 114 45 39 39 46 52 57 115 12 70 11 118 -18 620 -3 51
0 97 6 114 13 31 5 31 167 10 l51 -6 8 -242 c11 -343 10 -572 -3 -641 -19
-102 -24 -119 -53 -161 -36 -53 -126 -134 -148 -134 -9 0 -22 -5 -28 -11 -12
-12 -150 -7 -243 9 -56 10 -189 69 -222 99 -10 9 -28 32 -39 50 l-21 33 23 19
23 18 -27 25 c-15 14 -27 32 -28 39 0 8 -3 7 -8 -4 -5 -15 -12 -7 -31 38 -13
31 -30 59 -37 63 -10 6 -16 72 -23 262 -11 262 -25 465 -36 534 -5 27 -3 41 7
47 16 10 202 10 239 0z m1170 -36 c140 -3 278 -11 307 -17 46 -10 53 -15 58
-40 8 -36 -4 -145 -19 -173 -6 -11 -23 -33 -38 -50 -14 -16 -33 -52 -42 -79
-18 -52 -46 -117 -77 -179 -18 -35 -39 -64 -136 -190 -40 -51 -93 -152 -93
-176 0 -15 12 -19 83 -24 45 -3 137 -3 204 0 139 7 153 2 153 -56 0 -20 5 -73
12 -119 6 -50 8 -86 2 -92 -5 -5 -76 -6 -161 -3 -151 6 -153 6 -153 29 0 13
-10 40 -22 61 -23 40 -78 98 -78 82 0 -5 -5 -9 -11 -9 -5 0 -7 5 -3 11 5 9 -1
10 -21 5 -18 -5 -31 -3 -36 5 -11 19 -130 25 -143 8 -6 -8 -30 -23 -54 -33
-50 -22 -62 -40 -62 -91 0 -35 -1 -36 -32 -33 -31 3 -33 5 -36 48 -4 47 10
110 38 175 10 22 25 60 35 85 23 61 126 254 207 389 21 34 38 65 38 67 0 2 18
31 40 65 22 34 40 68 40 74 0 9 -46 14 -162 18 -90 3 -173 9 -186 13 -23 6
-23 8 -18 123 3 64 5 118 6 120 0 1 24 0 53 -3 28 -3 167 -9 307 -11z m1662
-27 c9 -17 15 -112 20 -343 7 -341 19 -563 30 -581 6 -9 254 -29 448 -37 l55
-2 3 -149 3 -148 -28 6 c-16 4 -46 11 -68 17 -81 21 -154 29 -345 39 -327 16
-331 17 -310 65 8 18 9 18 9 2 1 -31 26 -13 32 24 3 19 8 39 10 44 1 6 -1 33
-5 60 -7 42 -10 47 -17 28 -12 -32 -29 -28 -29 6 0 16 -5 42 -11 58 -10 25
-23 323 -36 771 l-4 162 115 0 c109 0 116 -1 128 -22z m900 -263 c3 -132 11
-346 17 -475 6 -129 14 -299 17 -378 l7 -143 -39 3 -39 3 -2 60 c-3 82 -25
265 -32 265 -4 0 -12 15 -19 33 -7 17 -20 46 -29 63 -8 18 -16 45 -16 60 -2
32 -19 55 -54 73 -22 11 -23 10 -25 -31 -1 -24 -2 -50 -4 -58 -1 -8 -3 -55 -4
-105 -2 -76 -4 -84 -11 -50 -4 22 -8 162 -8 310 -1 149 -6 342 -12 429 -5 87
-8 165 -5 173 5 11 31 13 128 11 l123 -3 7 -240z m388 203 c69 -7 131 -17 138
-22 20 -12 72 -97 72 -117 0 -21 85 -148 135 -203 34 -37 36 -38 50 -20 8 10
15 25 15 31 0 17 63 135 93 176 13 18 32 50 42 72 10 22 22 43 27 46 15 10
332 -2 345 -13 10 -8 3 -22 -30 -60 -56 -66 -167 -210 -167 -217 0 -4 -10 -17
-23 -31 -12 -14 -33 -41 -47 -60 -13 -19 -27 -37 -30 -40 -11 -11 -70 -112
-70 -122 0 -5 10 -23 23 -38 12 -15 30 -40 39 -56 19 -32 21 -35 92 -144 27
-41 52 -77 55 -80 13 -11 51 -70 51 -79 0 -5 4 -11 8 -13 13 -5 66 -87 102
-158 19 -36 43 -75 54 -88 l21 -23 -64 5 c-35 2 -67 9 -70 15 -7 10 -41 8 -59
-3 -4 -2 -14 -1 -21 3 -7 5 -25 2 -41 -6 -40 -19 -58 -6 -115 86 -26 42 -82
128 -126 191 -44 63 -83 122 -86 130 -3 8 -13 23 -21 32 -14 17 -16 17 -27 -5
-6 -12 -27 -49 -44 -82 -81 -148 -108 -211 -117 -264 l-6 -44 -67 7 c-36 3
-106 10 -156 15 -49 5 -93 10 -97 10 -16 2 -7 29 18 52 27 25 71 95 132 209
38 73 111 185 139 215 34 36 63 83 63 100 0 9 -10 31 -22 48 -26 37 -127 163
-155 192 -11 11 -48 63 -83 115 -35 52 -69 101 -77 108 -7 7 -20 26 -30 42 -9
17 -21 30 -25 30 -4 0 -8 6 -8 13 0 8 -9 22 -20 32 -31 28 -24 38 23 32 23 -3
98 -12 167 -19z m-7948 -1109 c19 -10 20 -13 7 -23 -9 -6 -16 -22 -16 -36 -1
-14 -4 -34 -8 -46 -4 -13 -1 -27 7 -35 8 -8 17 -21 21 -29 4 -8 11 -22 16 -30
4 -8 18 -37 30 -64 23 -52 80 -128 119 -159 12 -10 29 -26 38 -34 29 -30 135
-93 154 -93 11 0 20 -4 20 -9 0 -17 36 -23 215 -37 222 -18 265 -23 265 -36 0
-5 4 -7 9 -3 5 3 12 1 16 -5 3 -5 15 -10 25 -10 10 0 25 -7 34 -15 9 -9 17
-11 21 -5 10 17 25 11 25 -9 0 -16 5 -18 40 -14 36 5 40 3 40 -16 0 -11 5 -21
11 -21 6 0 9 -12 7 -27 -2 -21 5 -36 30 -59 17 -17 32 -36 32 -43 0 -6 5 -11
10 -11 7 0 7 -7 -1 -21 -6 -12 -8 -36 -5 -54 6 -29 4 -33 -13 -28 -13 3 -23
-2 -30 -16 -7 -12 -18 -21 -25 -21 -13 0 -32 -65 -29 -97 0 -7 -6 -13 -14 -13
-8 0 -11 5 -8 10 3 6 -1 10 -9 10 -10 0 -13 -6 -9 -17 4 -10 2 -14 -4 -10 -6
4 -8 -3 -6 -17 4 -17 -1 -25 -17 -29 -12 -3 -19 -10 -15 -16 3 -7 -1 -10 -12
-9 -35 3 -54 -2 -48 -12 3 -5 1 -10 -5 -10 -6 0 -8 -5 -5 -10 9 -15 -14 -40
-37 -40 -11 0 -38 -13 -61 -29 -85 -58 -170 -111 -178 -111 -10 0 -95 -37
-194 -85 -216 -104 -364 -173 -395 -185 -19 -7 -46 -21 -60 -30 -24 -16 -128
-67 -215 -106 -22 -10 -68 -35 -102 -55 -52 -31 -160 -79 -179 -79 -3 0 -2 4
1 10 3 5 -1 20 -8 32 -8 13 -18 43 -21 68 -4 25 -14 56 -23 70 -9 14 -23 59
-30 100 -17 97 -44 287 -47 325 -1 17 -7 39 -13 50 -5 11 -13 37 -16 57 -3 20
-13 54 -23 74 -15 31 -18 66 -18 223 0 273 3 292 56 349 78 83 141 142 160
148 10 3 18 9 18 14 0 4 20 27 45 51 25 24 45 47 45 51 0 5 15 25 33 44 17 20
38 57 44 82 16 60 16 62 -2 62 -8 0 -15 5 -15 10 0 6 5 10 11 10 6 0 31 15 57
32 76 53 156 87 225 97 5 0 18 -4 29 -10z m5810 -99 c-12 -11 -24 -20 -28 -20
-4 0 -27 -20 -50 -45 l-43 -44 5 -63 c3 -35 9 -64 15 -66 5 -2 9 -9 9 -16 0
-7 14 -27 30 -44 17 -18 30 -41 30 -52 0 -11 5 -20 10 -20 6 0 10 -5 10 -12 0
-18 122 -128 142 -128 10 0 18 -4 18 -10 0 -5 7 -10 15 -10 8 0 29 -13 47 -28
18 -16 49 -37 68 -49 35 -20 36 -20 125 -1 103 21 168 21 100 0 -22 -7 -82
-24 -133 -37 -52 -14 -98 -27 -103 -31 -6 -3 -43 -14 -82 -24 -40 -10 -90 -24
-112 -33 -22 -8 -60 -20 -85 -27 -25 -7 -97 -29 -160 -50 -63 -21 -149 -47
-190 -59 -100 -30 -191 -60 -330 -111 -63 -23 -128 -45 -145 -50 -16 -4 -65
-22 -108 -39 -43 -17 -133 -50 -200 -72 -67 -23 -146 -52 -175 -65 -29 -13
-54 -24 -56 -24 -3 0 -37 -15 -78 -34 -40 -19 -99 -44 -130 -55 -32 -12 -84
-30 -115 -42 -32 -11 -71 -29 -88 -39 -16 -10 -55 -28 -85 -40 -69 -27 -106
-43 -200 -87 -41 -20 -95 -44 -120 -53 -62 -25 -280 -123 -365 -164 -38 -19
-169 -83 -290 -142 -121 -58 -231 -115 -245 -124 -14 -10 -108 -60 -209 -110
-101 -51 -207 -107 -235 -125 -59 -38 -389 -205 -404 -205 -6 0 -12 -3 -14 -7
-1 -5 -25 -19 -53 -33 -27 -13 -71 -39 -97 -57 -26 -18 -50 -33 -53 -33 -2 0
-34 -18 -70 -40 -35 -22 -79 -46 -97 -54 -18 -7 -43 -23 -56 -34 -13 -11 -30
-18 -39 -15 -12 5 -12 7 -1 14 19 12 2 10 -73 -9 -58 -15 -80 -16 -167 -7 -55
6 -106 16 -114 22 -19 15 -77 21 -82 9 -2 -6 -5 -1 -5 11 -1 13 -4 22 -8 22
-25 -4 -45 4 -67 26 -14 14 -34 25 -44 25 -15 0 -21 9 -26 40 -3 22 -11 40
-16 40 -6 0 -10 17 -10 39 0 30 4 40 20 44 18 5 20 14 20 79 1 44 6 83 15 98
15 26 20 82 7 77 -15 -5 -10 27 10 69 6 12 7 32 2 45 -4 13 -7 27 -6 32 3 10
-18 8 -63 -8 -54 -19 -56 -11 -3 13 100 44 391 262 374 280 -3 2 11 18 29 35
18 18 43 54 55 80 12 26 31 54 41 61 10 7 16 15 13 19 -3 3 4 10 15 17 12 6
21 17 21 25 0 14 31 47 95 100 19 17 51 45 71 63 20 18 46 34 57 34 12 1 36
11 52 23 17 12 40 25 52 29 11 4 36 20 55 36 18 16 41 30 50 30 19 0 41 33 30
45 -4 4 5 5 19 2 22 -6 28 -3 32 14 4 14 11 20 21 16 8 -3 18 -2 21 3 4 6 14
10 24 10 10 0 32 7 47 15 16 8 37 15 46 15 9 0 20 5 23 10 4 6 15 8 25 5 11
-3 22 0 27 8 10 18 46 37 70 37 10 0 45 14 78 30 33 16 65 30 72 30 6 0 24 6
40 14 15 8 47 22 70 32 23 9 50 25 59 35 10 11 24 19 33 19 9 0 26 7 37 15 12
8 33 16 48 19 14 3 45 16 69 29 23 14 97 53 165 87 67 34 134 72 149 83 83 66
194 95 242 65 15 -9 22 -8 35 5 14 14 46 15 274 12 141 -3 290 -7 329 -10 40
-3 90 -1 110 4 21 5 97 15 168 22 72 6 150 14 175 17 59 7 195 7 245 -1 22 -3
83 -8 135 -12 90 -6 139 -16 185 -35 55 -22 301 -45 311 -28 3 4 24 16 47 26
80 36 157 100 157 131 0 6 4 11 9 11 5 0 16 17 25 38 20 45 56 103 76 125 8 8
24 27 35 41 75 98 222 226 260 226 8 0 15 5 15 10 0 6 8 10 17 10 14 0 14 -3
-5 -20z m3068 -199 l0 -89 -32 -8 c-33 -7 -33 -7 -8 -15 14 -5 -11 -6 -55 -2
-44 3 -84 9 -88 13 -5 4 5 16 22 26 17 10 34 26 37 36 3 10 9 18 14 18 4 0 11
11 14 24 7 27 63 86 83 86 10 0 13 -22 13 -89z m-1175 -411 c318 -16 684 -46
695 -57 6 -7 -212 2 -410 17 -74 6 -220 14 -325 20 -104 5 -251 14 -325 19
-74 6 -160 13 -190 15 -107 7 358 -4 555 -14z m-110 -95 c110 -9 333 -24 495
-34 162 -11 306 -24 320 -29 23 -10 21 -11 -20 -11 -52 -1 -280 14 -455 29
-198 17 -401 31 -557 38 -80 4 -150 10 -154 15 -12 12 155 8 371 -8z m985
-529 c164 -35 329 -119 442 -225 177 -165 201 -193 270 -311 80 -138 156 -346
177 -485 6 -38 15 -100 21 -136 5 -36 10 -131 10 -211 0 -153 -6 -200 -56
-438 -49 -236 -68 -289 -123 -353 -18 -20 -34 -50 -36 -67 -5 -36 -33 -78 -75
-113 -28 -24 -62 -36 -183 -65 -59 -15 -159 -15 -229 -1 -129 25 -156 31 -198
40 -25 6 -54 15 -65 19 -11 5 -29 11 -40 15 -14 5 -16 9 -7 12 8 3 24 1 35 -5
66 -32 365 -65 402 -45 17 10 15 11 -165 44 -54 10 -272 79 -320 102 -14 6
-52 29 -85 51 -61 41 -63 58 -2 33 19 -8 99 -29 178 -47 124 -28 156 -32 234
-27 94 6 227 36 304 69 51 22 126 95 144 141 3 9 13 17 21 17 9 0 20 9 26 19
15 29 12 36 -7 19 -80 -68 -195 -108 -309 -108 -60 0 -326 36 -364 49 -14 5
-60 20 -102 32 -43 13 -78 28 -78 33 0 9 28 5 115 -18 36 -10 115 -18 200 -20
77 -3 124 -2 105 0 -48 7 -154 29 -222 48 -61 17 -188 71 -188 80 0 3 16 6 35
6 23 0 34 -4 33 -12 -2 -9 13 -14 45 -16 33 -2 47 0 42 7 -3 6 -23 12 -43 12
l-37 1 30 8 c17 4 73 8 125 9 57 1 101 7 111 14 13 10 0 11 -68 8 -152 -6
-203 19 -65 33 60 6 234 47 277 65 82 35 93 37 75 16 -7 -9 -10 -19 -6 -23 10
-9 130 119 147 158 8 16 17 30 21 30 27 0 -43 -121 -104 -180 -32 -30 -58 -60
-58 -66 0 -6 -10 -16 -22 -22 -18 -8 -19 -11 -6 -11 9 -1 19 3 22 8 3 5 15 11
26 14 11 3 18 1 14 -4 -7 -11 -1 -11 30 0 16 7 26 7 28 -1 5 -15 63 36 89 79
31 49 37 23 9 -33 -13 -24 -21 -47 -17 -50 6 -6 46 60 68 114 8 17 17 32 21
32 5 0 8 9 8 19 0 11 5 23 10 26 18 11 11 -53 -10 -90 -22 -40 -25 -55 -10
-55 6 0 10 7 10 15 0 8 5 15 10 15 6 0 10 9 10 20 0 11 5 20 10 20 6 0 10 15
10 34 0 19 9 55 20 81 11 26 20 56 20 68 0 16 3 18 11 10 14 -14 -4 -93 -41
-188 -4 -11 -13 -40 -20 -65 -6 -25 -16 -53 -22 -63 -5 -11 -7 -21 -4 -24 8
-8 74 89 82 122 8 30 8 30 12 -10 l4 -40 18 40 c11 22 19 47 20 56 0 8 4 19 8
25 14 15 42 123 52 199 13 97 3 350 -16 387 -8 15 -16 28 -17 28 -2 0 0 -24 4
-52 11 -74 10 -210 0 -227 -6 -9 -11 18 -14 75 -3 49 -10 107 -15 129 -48 191
-110 383 -143 442 -85 154 -149 249 -206 307 -36 36 -70 66 -75 66 -6 0 -4 -8
3 -17 8 -9 9 -14 2 -10 -6 4 -19 4 -28 1 -14 -6 -16 -15 -11 -55 4 -31 3 -49
-4 -49 -5 0 -10 -5 -10 -11 0 -32 -122 -137 -162 -139 -22 -1 -82 71 -129 157
-82 147 -86 156 -95 246 -4 44 -13 69 -29 87 -39 44 -48 67 -28 79 24 14 36
13 113 -3z m-2608 -116 c79 -5 150 -10 158 -11 8 0 2 -7 -15 -15 -27 -12 -20
-13 70 -6 55 3 114 6 130 6 38 -1 164 -20 230 -34 28 -6 104 -19 170 -30 66
-11 140 -25 165 -30 70 -17 130 -29 190 -39 30 -6 75 -15 100 -21 25 -6 63
-15 85 -21 22 -5 67 -14 100 -19 146 -22 223 -40 275 -63 46 -20 22 -21 -65
-2 -109 24 -163 34 -251 45 -45 5 -116 21 -158 35 -42 14 -85 25 -95 25 -10 0
-21 3 -25 7 -3 4 -28 8 -54 10 -26 2 -87 10 -137 17 -49 8 -135 20 -190 26
-55 6 -128 23 -163 36 -34 13 -73 24 -87 24 -14 0 -25 5 -25 10 0 6 -35 10
-86 10 -98 0 -105 -15 -12 -25 78 -9 196 -32 223 -44 11 -5 28 -12 39 -15 15
-5 16 -9 6 -21 -11 -13 -6 -15 34 -15 25 0 45 -3 45 -7 -5 -30 3 -43 26 -43
14 0 25 -4 25 -10 0 -5 9 -10 19 -10 11 0 22 -4 25 -9 3 -5 20 -11 38 -14 18
-3 49 -10 68 -16 52 -15 151 -37 275 -61 61 -12 121 -23 135 -26 14 -3 50 -7
80 -10 30 -3 59 -10 65 -15 5 -5 19 -9 32 -9 13 0 23 -4 23 -10 0 -5 9 -10 19
-10 10 0 22 -7 25 -16 5 -14 4 -15 -8 -5 -8 7 -25 9 -41 5 -31 -8 -18 -20 26
-26 13 -2 29 -6 34 -10 100 -62 97 -61 300 -63 142 -2 221 -8 311 -24 87 -15
133 -19 165 -13 42 8 139 6 148 -3 19 -19 -71 -54 -146 -56 l-38 -1 43 -11
c150 -36 -152 -34 -353 3 -66 12 -140 25 -165 30 -73 13 -217 49 -299 75 -42
13 -195 53 -341 89 -146 36 -313 81 -372 100 -59 20 -129 38 -155 40 -47 5
-47 5 -21 -9 14 -8 50 -21 80 -29 29 -8 78 -25 108 -39 100 -45 372 -131 545
-173 33 -8 80 -22 105 -30 25 -9 103 -29 175 -46 71 -16 186 -43 255 -59 69
-16 181 -35 250 -44 128 -15 244 -36 315 -56 54 -15 138 -102 154 -161 7 -25
10 -73 7 -114 -5 -81 -35 -214 -48 -214 -12 0 -246 117 -373 187 -65 36 -150
78 -410 203 -281 136 -415 200 -420 200 -2 0 -32 13 -67 29 -233 109 -457 209
-543 241 -55 21 -143 55 -195 75 -52 20 -131 46 -175 57 -43 11 -87 24 -97 29
-20 11 -130 37 -208 49 -30 5 -111 19 -180 31 -69 12 -170 25 -225 30 -55 4
-115 11 -134 15 -34 7 -185 -5 -391 -32 -196 -25 -286 -43 -372 -75 -46 -17
-137 -50 -203 -74 -67 -24 -151 -60 -188 -80 -37 -20 -67 -32 -67 -27 0 37
177 145 311 192 35 12 78 28 94 35 84 36 235 80 389 113 l171 36 420 -2 c231
-1 414 2 407 6 -7 5 -60 10 -118 11 -58 1 -131 7 -162 12 -32 5 -61 10 -67 10
-5 1 8 5 30 9 22 4 50 6 62 4 12 -2 87 -9 165 -14z m-199 -176 c26 -3 47 -10
47 -15 0 -5 18 -9 39 -9 22 0 43 -4 46 -10 3 -5 25 -10 49 -10 83 0 154 -16
366 -80 168 -52 273 -95 387 -161 48 -28 129 -72 178 -96 50 -25 108 -58 130
-73 22 -14 56 -33 75 -40 19 -8 58 -30 85 -50 28 -20 73 -50 102 -68 43 -28
83 -69 83 -86 0 -2 -12 -7 -27 -11 -19 -4 -34 0 -54 14 -16 12 -31 21 -35 21
-4 0 -30 17 -58 38 -28 21 -80 54 -116 74 -36 19 -94 52 -130 72 -36 21 -92
53 -125 70 -33 18 -78 44 -100 58 -44 28 -219 118 -228 118 -4 0 -30 11 -59
24 -116 53 -179 76 -298 107 -41 11 -88 24 -105 29 -56 16 -150 38 -210 50
-33 6 -74 15 -91 21 -17 5 -44 9 -60 9 -16 0 -36 5 -44 11 -15 10 47 8 153 -7z
m-1659 -82 c-10 -10 -46 -36 -79 -59 -158 -109 -351 -356 -654 -839 -30 -47
-60 -91 -66 -98 -16 -15 -64 -91 -93 -146 -14 -25 -51 -84 -83 -132 -33 -48
-59 -90 -59 -93 0 -3 -13 -19 -30 -37 -16 -17 -30 -35 -30 -41 0 -5 -8 -17
-18 -26 -23 -20 -65 -81 -57 -81 15 0 95 94 95 112 0 14 5 18 15 14 8 -3 15
-1 15 5 0 5 8 13 17 16 23 9 44 32 83 89 19 27 39 55 45 61 5 7 24 30 40 52
17 22 33 40 37 41 9 0 -18 -40 -94 -141 -32 -42 -58 -79 -58 -82 0 -3 -11 -18
-24 -33 -14 -16 -62 -76 -108 -133 -93 -118 -458 -490 -558 -570 -36 -29 -72
-58 -81 -66 -33 -26 -170 -116 -187 -122 -16 -6 -16 -6 0 10 9 9 21 17 27 17
6 0 11 4 11 8 0 4 13 16 30 25 16 10 35 23 42 30 7 7 49 39 93 72 78 58 127
105 345 331 107 111 153 164 115 134 -10 -8 -55 -51 -101 -95 -156 -151 -244
-230 -276 -248 -18 -9 -28 -17 -23 -17 6 0 -8 -9 -30 -19 -22 -10 -51 -30 -64
-45 -14 -14 -30 -26 -37 -26 -7 0 -21 -11 -31 -24 -11 -16 -32 -27 -57 -30
-60 -10 -86 -17 -86 -27 0 -7 -57 -23 -85 -24 -5 0 -13 -4 -16 -9 -12 -15 -82
-22 -201 -21 -100 2 -121 5 -151 24 -20 12 -39 21 -44 20 -16 -4 -48 16 -73
45 -31 37 -64 75 -88 101 -40 43 -73 125 -51 125 5 0 6 7 3 15 -4 9 0 15 10
15 9 0 16 5 16 10 0 11 -47 3 -65 -10 -5 -4 -26 -11 -45 -15 -19 -3 -91 -24
-160 -45 -235 -72 -265 -79 -370 -90 -58 -5 -143 -16 -190 -22 -102 -15 -772
-15 -840 0 -38 8 -22 10 95 11 77 1 282 6 455 11 362 12 550 37 723 94 56 19
163 53 237 77 74 23 171 58 215 77 148 63 227 103 485 244 143 78 314 200 455
323 17 14 70 61 120 103 208 179 418 412 555 617 63 95 97 127 125 118 11 -4
30 -6 43 -5 13 1 21 -2 18 -7 -3 -4 5 -6 18 -4 19 4 118 -39 145 -63 13 -11 5
-84 -12 -119 l-20 -40 35 35 c20 19 73 85 119 145 190 252 302 368 434 450 74
45 114 59 79 27z m1257 8 c242 -17 399 -46 578 -106 114 -38 329 -142 420
-203 31 -21 87 -55 125 -76 38 -21 83 -51 100 -65 53 -46 273 -212 359 -273
168 -117 283 -228 337 -323 19 -32 40 -65 47 -72 18 -18 16 -33 -2 -26 -8 4
-15 11 -15 17 0 6 -26 35 -57 65 -233 220 -288 270 -324 290 -22 12 -53 30
-67 39 -24 14 -24 13 4 -13 17 -16 66 -58 109 -94 43 -36 126 -112 184 -170
96 -95 127 -135 307 -405 111 -165 229 -352 264 -415 35 -63 94 -162 132 -218
38 -57 68 -106 65 -108 -4 -4 -67 75 -113 141 -11 17 -28 39 -37 50 -130 158
-177 225 -264 370 -255 425 -368 568 -626 795 -53 47 -99 93 -102 102 -8 22
-87 89 -195 163 -47 32 -126 89 -175 126 -50 38 -120 82 -156 99 -134 62 -485
183 -609 210 -52 11 -126 27 -165 35 -105 22 -270 34 -470 36 -190 1 -216 -3
-405 -63 -68 -22 -231 -94 -240 -107 -3 -4 -26 -19 -51 -34 -61 -35 -155 -127
-206 -202 -71 -104 -113 -206 -152 -368 -13 -57 -15 -406 -2 -439 5 -13 20
-61 32 -108 13 -47 31 -100 41 -118 37 -68 15 -72 -27 -4 -54 86 -109 232
-124 332 -16 96 -13 275 5 345 9 33 20 80 25 105 12 61 77 193 125 256 53 69
165 167 244 213 68 40 229 118 290 141 19 7 39 17 45 22 5 4 18 8 30 8 12 0
25 4 31 8 5 5 27 13 49 20 22 6 56 15 75 20 47 13 393 14 561 2z m30 -642 c49
-26 138 -101 185 -155 75 -86 103 -134 146 -250 79 -213 88 -269 79 -450 -3
-58 -29 -140 -71 -228 -21 -44 -50 -111 -65 -150 -15 -38 -41 -91 -57 -118
-29 -46 -152 -167 -169 -167 -20 0 -7 28 27 61 55 52 82 101 109 197 13 48 35
119 48 157 13 39 36 120 51 180 15 61 33 131 41 156 8 26 15 65 15 88 0 63
-52 212 -129 366 -70 142 -133 229 -204 282 -49 37 -52 55 -6 31z m-1364 -345
c-1 -181 1 -214 17 -255 10 -26 22 -46 25 -43 9 5 30 -20 55 -66 99 -180 173
-276 286 -374 62 -52 205 -136 265 -155 22 -7 49 -16 60 -21 117 -45 350 -48
437 -4 17 8 37 15 45 15 16 0 17 -17 1 -23 -7 -2 1 -2 17 1 17 2 35 8 40 12 6
4 22 10 37 14 46 11 23 -19 -35 -47 -88 -41 -154 -54 -282 -56 -123 -1 -120
-2 -375 65 -99 26 -117 34 -199 88 -42 28 -92 58 -111 67 -87 40 -199 173
-247 293 -14 33 -31 75 -39 91 -40 88 -69 320 -45 362 8 14 10 7 11 -32 0 -27
5 -57 10 -65 6 -10 10 39 10 147 0 142 4 193 15 193 2 0 3 -93 2 -207z m1421
58 c23 -25 42 -49 42 -53 0 -5 5 -8 11 -8 8 0 8 4 2 13 -6 6 -13 22 -15 34 -8
31 12 20 40 -23 17 -27 22 -43 17 -66 -4 -17 -3 -33 3 -37 5 -3 22 -35 37 -70
28 -67 35 -145 16 -178 -8 -16 -11 -15 -20 10 -6 16 -11 34 -11 41 0 7 -17 55
-39 108 -40 98 -104 204 -166 272 -19 22 -35 44 -35 49 0 14 69 -40 118 -92z
m-486 -93 c64 -19 123 -80 168 -172 36 -74 40 -90 40 -157 0 -58 -5 -83 -23
-114 -27 -47 -108 -105 -148 -105 -34 0 -42 11 -31 42 5 12 6 54 3 91 -6 63
-9 70 -41 95 -101 77 -127 131 -115 230 11 91 55 118 147 90z m1690 -289 c11
-6 28 -29 39 -52 19 -42 26 -127 11 -127 -5 0 -21 14 -38 31 -16 17 -58 45
-94 63 -36 18 -66 40 -68 48 -7 36 102 63 150 37z m-535 -226 c42 -32 54 -72
37 -117 -17 -44 -122 12 -159 84 -17 33 -17 34 5 52 29 23 71 16 117 -19z
m-2661 -35 c25 -11 65 -39 90 -62 37 -34 46 -50 54 -95 9 -49 8 -58 -12 -87
-13 -18 -32 -37 -43 -42 -55 -25 -172 64 -200 151 -10 29 -30 68 -46 88 -40
52 -40 62 1 70 49 10 104 2 156 -23z m3504 -183 c46 -24 70 -62 70 -112 0 -62
-23 -103 -58 -103 -71 0 -171 106 -156 166 7 29 57 64 92 64 13 0 36 -7 52
-15z m1011 -208 c10 -10 20 -18 24 -17 4 1 41 -27 83 -62 156 -129 178 -146
241 -183 83 -49 167 -81 257 -100 81 -17 144 -20 109 -5 -22 8 -4 13 97 24 26
3 73 15 105 27 32 12 73 22 92 22 25 0 45 11 85 48 29 26 61 63 71 83 23 42
35 46 35 11 0 -59 -108 -191 -190 -232 -55 -28 -189 -41 -315 -31 -171 12
-294 57 -435 156 -121 85 -298 252 -334 314 l-19 33 39 -35 c21 -19 46 -43 55
-53z"/>
<path d="M6747 7991 c-10 -16 -36 -49 -58 -73 -39 -41 -40 -42 -34 -15 5 26 0
23 -53 -30 -61 -61 -152 -141 -212 -185 -61 -45 -282 -155 -365 -181 -153 -48
-391 -105 -487 -116 -53 -6 -146 -11 -207 -11 -120 0 -150 -14 -48 -23 120
-11 327 2 457 27 116 22 349 85 395 106 11 5 45 16 75 24 98 27 252 138 405
291 58 58 165 192 165 208 0 16 -17 5 -33 -22z"/>
<path d="M4030 5653 c0 -93 4 -174 9 -181 7 -11 26 -12 107 -2 175 19 221 43
244 124 25 89 -13 168 -90 190 -55 16 -178 36 -222 36 l-48 0 0 -167z"/>
<path d="M5090 5766 c-12 -15 -11 -268 1 -280 9 -9 219 -28 243 -22 70 17 109
123 72 195 -23 43 -82 89 -123 96 -21 4 -54 11 -73 16 -52 13 -106 11 -120 -5z"/>
</g>
</svg>
